<svg xmlns="http://www.w3.org/2000/svg" width="40" height="40" viewBox="0 0 40 40">
  <g id="Group_60" data-name="Group 60" transform="translate(-200 -644)">
    <rect id="Rectangle_7" data-name="Rectangle 7" width="40" height="40" rx="12" transform="translate(200 644)" fill="#6a453b"/>
    <g id="Group_58" data-name="Group 58" transform="translate(85 -29)">
      <g id="Group_150" data-name="Group 150" transform="translate(120 678)">
        <g id="Ellipse_10" data-name="Ellipse 10" fill="#fff" stroke="#707070" stroke-width="1">
          <circle cx="15" cy="15" r="15" stroke="none"/>
          <circle cx="15" cy="15" r="14.5" fill="none"/>
        </g>
        <g id="instagram">
          <path id="Path_5905" data-name="Path 5905" d="M35.289,23.88H26.347a2.591,2.591,0,0,0-2.588,2.588V35.41A2.592,2.592,0,0,0,26.347,38h8.941a2.592,2.592,0,0,0,2.589-2.589V26.468A2.591,2.591,0,0,0,35.289,23.88ZM30.818,35.587a4.648,4.648,0,1,1,4.648-4.648A4.653,4.653,0,0,1,30.818,35.587Zm4.8-8.334a1.1,1.1,0,1,1,1.1-1.1A1.1,1.1,0,0,1,35.615,27.252Z" transform="translate(-15.818 -15.899)" fill="#6a453b"/>
          <path id="Path_5906" data-name="Path 5906" d="M39.533,36.971a2.684,2.684,0,1,0,2.684,2.683A2.687,2.687,0,0,0,39.533,36.971Z" transform="translate(-24.533 -24.614)" fill="#6a453b"/>
          <path id="Path_5907" data-name="Path 5907" d="M15,0A15,15,0,1,0,30,15,15,15,0,0,0,15,0Zm9.023,19.511a4.557,4.557,0,0,1-4.552,4.552H10.529a4.557,4.557,0,0,1-4.552-4.552V10.57a4.557,4.557,0,0,1,4.552-4.552h8.941a4.557,4.557,0,0,1,4.552,4.552Z" fill="#6a453b"/>
        </g>
      </g>
    </g>
  </g>
</svg>
