<svg xmlns="http://www.w3.org/2000/svg" xmlns:xlink="http://www.w3.org/1999/xlink" width="32" height="32" viewBox="0 0 32 32">
  <defs>
    <clipPath id="clip-path">
      <rect id="Rectangle_258" data-name="Rectangle 258" width="20" height="20" transform="translate(17 20)" fill="#fff" stroke="#707070" stroke-width="1"/>
    </clipPath>
  </defs>
  <g id="Group_17301" data-name="Group 17301" transform="translate(-13 -16)">
    <rect id="Rectangle_257" data-name="Rectangle 257" width="32" height="32" transform="translate(13 16)" fill="rgba(255,255,255,0)"/>
    <g id="Mask_Group_2" data-name="Mask Group 2" transform="translate(2 2)" clip-path="url(#clip-path)">
      <g id="menu" transform="translate(17 22.778)">
        <path id="Path_5921" data-name="Path 5921" d="M19.167,9.333H.833a.833.833,0,1,1,0-1.667H19.167a.833.833,0,1,1,0,1.667Zm0,0" transform="translate(0 -1.278)" fill="#fff"/>
        <path id="Path_5922" data-name="Path 5922" d="M19.167,1.667H.833A.833.833,0,0,1,.833,0H19.167a.833.833,0,1,1,0,1.667Zm0,0" fill="#fff"/>
        <path id="Path_5923" data-name="Path 5923" d="M19.167,17H.833a.833.833,0,1,1,0-1.667H19.167a.833.833,0,1,1,0,1.667Zm0,0" transform="translate(0 -2.556)" fill="#fff"/>
      </g>
    </g>
  </g>
</svg>
