<svg xmlns="http://www.w3.org/2000/svg" width="40" height="40" viewBox="0 0 40 40">
  <g id="Group_61" data-name="Group 61" transform="translate(-110 -645)">
    <rect id="Rectangle_8" data-name="Rectangle 8" width="40" height="40" rx="12" transform="translate(110 645)" fill="#55acee"/>
    <g id="twitter" transform="translate(109.999 645)">
      <circle id="Ellipse_9" data-name="Ellipse 9" cx="20" cy="20" r="20" transform="translate(0.001 0)" fill="#55acee"/>
      <g id="Group_57" data-name="Group 57" transform="translate(10.001 12)">
        <path id="Path_5904" data-name="Path 5904" d="M45.1,35.922a8.288,8.288,0,0,1-2.357.635,4.062,4.062,0,0,0,1.8-2.234,8.294,8.294,0,0,1-2.606.98,4.13,4.13,0,0,0-3-1.275,4.072,4.072,0,0,0-4.1,4.039,3.973,3.973,0,0,0,.107.921A11.71,11.71,0,0,1,26.5,34.767a3.974,3.974,0,0,0-.556,2.031,4.023,4.023,0,0,0,1.825,3.362,4.124,4.124,0,0,1-1.858-.506c0,.017,0,.034,0,.051a4.058,4.058,0,0,0,3.292,3.96,4.183,4.183,0,0,1-1.853.07,4.1,4.1,0,0,0,3.833,2.805A8.391,8.391,0,0,1,25.1,48.213a11.74,11.74,0,0,0,6.289,1.815A11.5,11.5,0,0,0,43.067,38.535c0-.175,0-.349-.012-.522A8.25,8.25,0,0,0,45.1,35.922Z" transform="translate(-25.103 -34.028)" fill="#fff"/>
      </g>
    </g>
  </g>
</svg>
