<svg xmlns="http://www.w3.org/2000/svg" width="130" height="142" viewBox="0 0 130 142">
  <g id="Group_17307" data-name="Group 17307" transform="translate(-142 -135)">
    <g id="Group_4" data-name="Group 4" transform="translate(0 -224)">
      <g id="Rectangle_5" data-name="Rectangle 5" transform="translate(142 359)" fill="#609933" stroke="#fff" stroke-width="5">
        <rect width="130" height="142" rx="20" stroke="none"/>
        <rect x="2.5" y="2.5" width="125" height="137" rx="17.5" fill="none"/>
      </g>
      <text id="Uploaded_Video_ti_" data-name="Uploaded Video ti…" transform="translate(207 481)" fill="#fff" font-size="12" font-family="SegoeUI, Segoe UI"><tspan x="-52.412" y="0">Uploaded Video ti…</tspan></text>
    </g>
    <g id="file-extension" transform="translate(94 127)">
      <path id="Path_30" data-name="Path 30" d="M143.3,103.39H82.7c-5.907,0-10.7-3.677-10.7-8.213V32.213C72,27.677,76.789,24,82.7,24h49.913L154,40.426V95.178C154,99.713,149.211,103.39,143.3,103.39Z" transform="translate(0 0)" fill="#8cb22d"/>
      <path id="Path_31" data-name="Path 31" d="M72,360h82v17.569a10.619,10.619,0,0,1-10.7,10.541H82.7A10.619,10.619,0,0,1,72,377.569Z" transform="translate(0 -282.11)" fill="#fff"/>
      <path id="Path_32" data-name="Path 32" d="M365.391,45.083H354.7A10.619,10.619,0,0,1,344,34.541V24Z" transform="translate(-211.391 0)" fill="#609933"/>
      <g id="Group_15" data-name="Group 15" transform="translate(97 35)">
        <ellipse id="Ellipse_1" data-name="Ellipse 1" cx="15.848" cy="15.941" rx="15.848" ry="15.941" fill="#609933"/>
        <path id="Path_33" data-name="Path 33" d="M232,178.627V168l10.565,5.314Z" transform="translate(-220.146 -157.628)" fill="#fff"/>
      </g>
      <path id="Path_34" data-name="Path 34" d="M172.478,384a1.791,1.791,0,0,0-1.261.515l-4.087,4.029-4.087-4.029a1.8,1.8,0,0,0-1.943-.381,1.757,1.757,0,0,0-1.1,1.623v14.055a1.783,1.783,0,0,0,3.565,0V390l2.3,2.272a1.8,1.8,0,0,0,2.521,0L170.7,390v9.814a1.783,1.783,0,0,0,3.565,0V385.757A1.77,1.77,0,0,0,172.478,384Z" transform="translate(-68.391 -300.839)" fill="#609933"/>
      <path id="Path_35" data-name="Path 35" d="M245.348,384h-3.565A1.77,1.77,0,0,0,240,385.757v14.055a1.783,1.783,0,0,0,3.565,0v-5.271h1.783a5.271,5.271,0,1,0,0-10.541Zm0,7.028h-1.783v-3.514h1.783a1.757,1.757,0,1,1,0,3.514Z" transform="translate(-130.565 -300.84)" fill="#609933"/>
      <path id="Path_36" data-name="Path 36" d="M312.913,384a1.77,1.77,0,0,0-1.783,1.757v5.271h-3.565v-5.271a1.783,1.783,0,0,0-3.565,0v7.028a1.77,1.77,0,0,0,1.783,1.757h5.348v5.271a1.783,1.783,0,0,0,3.565,0V385.757A1.77,1.77,0,0,0,312.913,384Z" transform="translate(-180.304 -300.84)" fill="#609933"/>
    </g>
  </g>
</svg>
