<svg id="music-and-multimedia" xmlns="http://www.w3.org/2000/svg" width="41" height="41" viewBox="0 0 41 41">
  <path id="Path_2" data-name="Path 2" d="M9.4,0H31.6A9.4,9.4,0,0,1,41,9.4V31.6A9.4,9.4,0,0,1,31.6,41H9.4A9.4,9.4,0,0,1,0,31.6V9.4A9.4,9.4,0,0,1,9.4,0Z" fill="#609933"/>
  <g id="Group_3" data-name="Group 3" transform="translate(11.957 10.275)">
    <path id="Path_3" data-name="Path 3" d="M166.259,140.638l-7.687-11.958a.888.888,0,0,0-1.437,0l-7.687,11.958a.853.853,0,0,0,.255,1.18.863.863,0,0,0,.465.137h15.375a.854.854,0,0,0,.717-1.317Z" transform="translate(-149.311 -128.313)" fill="#609933"/>
    <path id="Path_4" data-name="Path 4" d="M165.562,321.708H150.187a.854.854,0,1,1,0-1.708h15.375a.854.854,0,1,1,0,1.708Z" transform="translate(-149.331 -304.65)" fill="#607d8b"/>
  </g>
  <path id="Path_5" data-name="Path 5" d="M31.6,41H9.4A9.407,9.407,0,0,1,0,31.6V9.4A9.406,9.406,0,0,1,9.4,0H31.6A9.407,9.407,0,0,1,41,9.4V31.6A9.408,9.408,0,0,1,31.6,41ZM9.4,1.708A7.7,7.7,0,0,0,1.708,9.4V31.6A7.7,7.7,0,0,0,9.4,39.292H31.6A7.7,7.7,0,0,0,39.292,31.6V9.4A7.7,7.7,0,0,0,31.6,1.708Z" fill="#fff"/>
  <path id="Path_6" data-name="Path 6" d="M165.564,141.952H150.189a.854.854,0,0,1-.717-1.317l7.687-11.958a.887.887,0,0,1,1.437,0l7.688,11.958a.856.856,0,0,1-.719,1.317Zm-13.81-1.708H164l-6.123-9.524Z" transform="translate(-137.376 -118.035)" fill="#fff"/>
  <path id="Path_7" data-name="Path 7" d="M165.562,321.708H150.187a.854.854,0,1,1,0-1.708h15.375a.854.854,0,1,1,0,1.708Z" transform="translate(-137.375 -294.375)" fill="#fff"/>
</svg>
