<svg xmlns="http://www.w3.org/2000/svg" xmlns:xlink="http://www.w3.org/1999/xlink" width="32" height="32" viewBox="0 0 32 32">
  <defs>
    <clipPath id="clip-path">
      <circle id="raise-kid-conscience2-blog-1138x658" cx="12.8" cy="12.8" r="12.8" fill="#609933" stroke="#ff7800" stroke-width="1"/>
    </clipPath>
  </defs>
  <g id="Group_17280" data-name="Group 17280" transform="translate(-157 -135)">
    <g id="raise-kid-conscience2-blog-1138x658-2" data-name="raise-kid-conscience2-blog-1138x658" transform="translate(157 135)" fill="#fff" stroke="#6d9842" stroke-width="1">
      <circle cx="16" cy="16" r="16" stroke="none"/>
      <circle cx="16" cy="16" r="15.5" fill="none"/>
    </g>
    <g id="Mask_Group_1" data-name="Mask Group 1" transform="translate(160.2 138.2)" clip-path="url(#clip-path)">
      <g id="user">
        <g id="Group_17185" data-name="Group 17185">
          <path id="Path_5920" data-name="Path 5920" d="M3.749,16.549A12.751,12.751,0,0,1,8.613,13.5a7.4,7.4,0,1,1,8.374,0A12.82,12.82,0,0,1,25.6,25.6h-2A10.8,10.8,0,1,0,2,25.6H0A12.717,12.717,0,0,1,3.749,16.549ZM12.8,12.8A5.4,5.4,0,1,0,7.4,7.4,5.406,5.406,0,0,0,12.8,12.8Z" fill="#609933"/>
        </g>
      </g>
    </g>
  </g>
</svg>
