<svg xmlns="http://www.w3.org/2000/svg" width="14" height="14" viewBox="0 0 14 14">
  <g id="Group_24" data-name="Group 24" transform="translate(-83 -517)">
    <circle id="Ellipse_2" data-name="Ellipse 2" cx="7" cy="7" r="7" transform="translate(83 517)" fill="#fff"/>
    <g id="tick" transform="translate(84.75 518.75)">
      <path id="Path_37" data-name="Path 37" d="M5.25,0A5.25,5.25,0,1,0,10.5,5.25,5.268,5.268,0,0,0,5.25,0Z" fill="#609933"/>
      <path id="Path_38" data-name="Path 38" d="M261.25,5.25A5.268,5.268,0,0,1,256,10.5V0A5.268,5.268,0,0,1,261.25,5.25Z" transform="translate(-250.75)" fill="#609933"/>
      <path id="Path_39" data-name="Path 39" d="M105.894,171.067l-3.605,3.605-2.59-2.584.874-.874,1.716,1.723.615-.615,2.123-2.123Z" transform="translate(-97.654 -166.71)" fill="#fff"/>
      <path id="Path_40" data-name="Path 40" d="M258.99,171.067l-2.99,2.99v-1.735l2.123-2.123Z" transform="translate(-250.75 -166.71)" fill="#fff"/>
    </g>
  </g>
</svg>
