<svg id="whatsapp" xmlns="http://www.w3.org/2000/svg" width="40" height="40" viewBox="0 0 40 40">
  <rect id="Rectangle_6" data-name="Rectangle 6" width="40" height="40" rx="12" fill="#1bd741"/>
  <g id="Group_59" data-name="Group 59" transform="translate(10.012 9.997)">
    <path id="Path_5908" data-name="Path 5908" d="M68.494,88.321l1.4-4.969A9.985,9.985,0,1,1,73.624,87Zm5.393-3.134.306.186a8.28,8.28,0,1,0-2.669-2.606l.206.32-.807,2.862Z" transform="translate(-68.494 -68.321)" fill="#fff"/>
    <path id="Path_5909" data-name="Path 5909" d="M149.842,152.862l-.648-.035a.784.784,0,0,0-.557.19,2.949,2.949,0,0,0-.971,1.486,4.5,4.5,0,0,0,1.046,3.531,10.515,10.515,0,0,0,5.668,4.116,2.765,2.765,0,0,0,2.339-.289,2.09,2.09,0,0,0,.91-1.327l.1-.483a.335.335,0,0,0-.188-.375l-2.19-1.008a.336.336,0,0,0-.406.1l-.86,1.113a.246.246,0,0,1-.277.082,6.732,6.732,0,0,1-3.643-3.114.248.248,0,0,1,.031-.277l.822-.95a.335.335,0,0,0,.055-.351l-.944-2.206A.336.336,0,0,0,149.842,152.862Z" transform="translate(-142.634 -147.529)" fill="#fff"/>
  </g>
</svg>
